<svg width="17" height="16" viewBox="0 0 17 16" fill="none" xmlns="http://www.w3.org/2000/svg">
<path d="M12.7608 15.3581C11.8898 16.2024 10.9388 16.0691 10.0234 15.6691C9.05464 15.2603 8.16586 15.2425 7.14377 15.6691C5.86393 16.2202 5.18846 16.0602 4.42411 15.3581C0.0868815 10.8875 0.726801 4.07948 5.65062 3.83063C6.85047 3.89284 7.68592 4.48832 8.38806 4.54165C9.43681 4.32834 10.4411 3.71509 11.561 3.79508C12.903 3.90173 13.9162 4.435 14.5828 5.39487C11.8098 7.05689 12.4675 10.7098 15.0094 11.7319C14.5028 13.065 13.8451 14.3893 12.752 15.367L12.7608 15.3581ZM8.29918 3.7773C8.16586 1.79533 9.77455 0.15998 11.6232 0C11.8809 2.29304 9.54347 3.9995 8.29918 3.7773Z" fill="white"/>
</svg>
