<svg width="17" height="16" viewBox="0 0 17 16" fill="none" xmlns="http://www.w3.org/2000/svg">
<path d="M5.76335 0.439883C4.11288 1.00096 2.68951 2.0659 1.70231 3.47828C0.715123 4.89066 0.216145 6.57604 0.278672 8.28686C0.3412 9.99768 0.961936 11.6438 2.04971 12.9833C3.13748 14.3229 4.63494 15.2853 6.32215 15.7292C7.69001 16.0751 9.12312 16.0903 10.4983 15.7735C11.7441 15.4993 12.8958 14.9128 13.8408 14.0713C14.8242 13.1688 15.5381 12.0207 15.9056 10.7504C16.3049 9.36898 16.376 7.91629 16.1134 6.50378H8.43216V9.62614H12.8806C12.7917 10.1241 12.6012 10.5994 12.3205 11.0236C12.0397 11.4478 11.6746 11.8121 11.2468 12.0947C10.7037 12.4469 10.0913 12.6839 9.4491 12.7902C8.80505 12.9076 8.14444 12.9076 7.5004 12.7902C6.84759 12.6581 6.23006 12.3941 5.68721 12.015C4.81501 11.41 4.1601 10.5505 3.81595 9.55912C3.46607 8.54916 3.46607 7.45429 3.81595 6.44434C4.06092 5.73642 4.4659 5.09186 5.00065 4.55878C5.61261 3.93753 6.38736 3.49345 7.23992 3.27528C8.09247 3.0571 8.98987 3.07326 9.83367 3.32197C10.4929 3.52017 11.0957 3.86662 11.5939 4.33367C12.0955 3.84468 12.5963 3.35443 13.0961 2.86291C13.3542 2.5986 13.6356 2.34694 13.8898 2.07631C13.1291 1.38269 12.2362 0.842925 11.2623 0.487939C9.48872 -0.143124 7.54812 -0.160083 5.76335 0.439883Z" fill="white"/>
<path d="M5.76263 0.438544C7.54725 -0.161829 9.48784 -0.145317 11.2616 0.485335C12.2356 0.842733 13.1281 1.38509 13.8878 2.0813C13.6297 2.35193 13.3574 2.60485 13.0941 2.8679C12.5934 3.35773 12.0931 3.84587 11.5932 4.33233C11.0949 3.86528 10.4921 3.51883 9.83294 3.32063C8.98942 3.07105 8.09205 3.05396 7.23927 3.27124C6.38649 3.48852 5.61126 3.93178 4.99863 4.55238C4.46388 5.08547 4.05891 5.73002 3.81393 6.43794L1.13867 4.40821C2.09625 2.54739 3.75424 1.124 5.76263 0.438544Z" fill="#E33629"/>
<path d="M0.429553 6.41896C0.573239 5.7206 0.811969 5.0443 1.13934 4.4082L3.8146 6.44299C3.46473 7.45295 3.46473 8.54781 3.8146 9.55777C2.92328 10.2322 2.03153 10.9101 1.13934 11.5913C0.320053 9.9932 0.0701835 8.17237 0.429553 6.41896Z" fill="#F8BD00"/>
<path d="M8.43221 6.50195H16.1134C16.376 7.91447 16.305 9.36716 15.9057 10.7486C15.5382 12.0189 14.8243 13.167 13.8408 14.0695C12.9774 13.4094 12.1102 12.7543 11.2469 12.0941C11.6749 11.8112 12.0402 11.4465 12.321 11.0219C12.6017 10.5973 12.7921 10.1215 12.8807 9.62306H8.43221C8.43092 8.58353 8.43221 7.54274 8.43221 6.50195Z" fill="#587DBD"/>
<path d="M1.13672 11.5921C2.0289 10.9176 2.92066 10.2398 3.81198 9.55859C4.15682 10.5503 4.81266 11.4099 5.68582 12.0145C6.23036 12.3918 6.84923 12.6537 7.50288 12.7834C8.14692 12.9008 8.80753 12.9008 9.45158 12.7834C10.0938 12.677 10.7061 12.4401 11.2493 12.0879C12.1126 12.748 12.9799 13.4031 13.8432 14.0632C12.8984 14.9051 11.7467 15.4921 10.5008 15.7667C9.1256 16.0835 7.69249 16.0683 6.32463 15.7224C5.24279 15.4393 4.23227 14.9403 3.35642 14.2567C2.42947 13.5354 1.67233 12.6265 1.13672 11.5921Z" fill="#319F43"/>
</svg>
