<svg width="201" height="200" viewBox="0 0 201 200" fill="none" xmlns="http://www.w3.org/2000/svg">
<g clip-path="url(#clip0_1286_1364)">
<path d="M25.4453 25H50.4453V50H25.4453V25Z" fill="white"/>
<path d="M75.4453 0V75H0.445312V0H75.4453ZM62.9453 12.5H12.9453V62.5H62.9453V12.5ZM50.4453 150H25.4453V175H50.4453V150Z" fill="white"/>
<path d="M75.4453 125V200H0.445312V125H75.4453ZM12.9453 137.5V187.5H62.9453V137.5H12.9453ZM150.445 25H175.445V50H150.445V25Z" fill="white"/>
<path d="M125.445 0V75H200.445V0H125.445ZM187.945 12.5V62.5H137.945V12.5H187.945ZM100.445 12.5V0H112.945V25H100.445V50H87.9453V12.5H100.445ZM100.445 75V50H112.945V75H100.445ZM75.4453 100V87.5H87.9453V75H100.445V100H112.945V87.5H175.445V100H125.445V112.5H87.9453V100H75.4453ZM75.4453 100V112.5H25.4453V100H12.9453V112.5H0.445312V87.5H37.9453V100H75.4453ZM200.445 112.5H187.945V87.5H200.445V112.5ZM187.945 112.5H175.445V137.5H200.445V125H187.945V112.5ZM137.945 112.5H162.945V125H150.445V137.5H137.945V112.5ZM162.945 150V137.5H150.445V150H137.945V162.5H112.945V175H150.445V150H162.945ZM162.945 150H200.445V162.5H175.445V175H162.945V150ZM112.945 137.5V150H125.445V125H87.9453V137.5H112.945Z" fill="white"/>
<path d="M87.9453 150H100.445V187.5H150.445V200H87.9453V150ZM200.445 175V200H162.945V187.5H187.945V175H200.445Z" fill="white"/>
</g>
<defs>
<clipPath id="clip0_1286_1364">
<rect width="200" height="200" fill="white" transform="translate(0.445312)"/>
</clipPath>
</defs>
</svg>
